<?xml version="1.0" encoding="utf-8"?>
<!-- Generator: Adobe Illustrator 16.0.0, SVG Export Plug-In . SVG Version: 6.00 Build 0)  -->
<!DOCTYPE svg PUBLIC "-//W3C//DTD SVG 1.1//EN"
        "http://www.w3.org/Graphics/SVG/1.1/DTD/svg11.dtd">
<svg version="1.1" id="Layer_1" xmlns="http://www.w3.org/2000/svg" xmlns:xlink="http://www.w3.org/1999/xlink" x="0px" y="0px"
	 width="426.315px" height="120.549px" viewBox="0 0 426.315 120.549" enable-background="new 0 0 426.315 120.549"
	 xml:space="preserve">
<g>
	
		<radialGradient id="SVGID_1_" cx="-27.6436" cy="-50820.9688" r="24.4805" gradientTransform="matrix(1.8692 0 0 0.1615 168.766 8324.1807)" gradientUnits="userSpaceOnUse">
		<stop  offset="0" style="stop-color:#53535C"/>
		<stop  offset="0.0757" style="stop-color:#6B676F"/>
		<stop  offset="0.1825" style="stop-color:#898389"/>
		<stop  offset="0.2949" style="stop-color:#A7A1A6"/>
		<stop  offset="0.4116" style="stop-color:#C2BEC0"/>
		<stop  offset="0.5343" style="stop-color:#D9D6D8"/>
		<stop  offset="0.6655" style="stop-color:#ECEAEA"/>
		<stop  offset="0.8111" style="stop-color:#F9F8F8"/>
		<stop  offset="1" style="stop-color:#FFFFFF"/>
	</radialGradient>
	<path opacity="0.5" fill="url(#SVGID_1_)" d="M162.851,116.597c0,2.18-20.488,3.952-45.758,3.952
		c-25.275,0-45.76-1.772-45.76-3.952c0-2.188,20.484-3.956,45.76-3.956C142.362,112.641,162.851,114.409,162.851,116.597z"/>
	
		<radialGradient id="SVGID_2_" cx="59.0742" cy="29.7173" r="58.4051" gradientTransform="matrix(1 0 0 1.6665 0 -19.8054)" gradientUnits="userSpaceOnUse">
		<stop  offset="0.0226" style="stop-color:#FFFFFF"/>
		<stop  offset="0.1203" style="stop-color:#F2F2F2"/>
		<stop  offset="0.1403" style="stop-color:#F0EFF0"/>
		<stop  offset="0.1931" style="stop-color:#E4E3E4"/>
		<stop  offset="0.2808" style="stop-color:#C9C8C8"/>
		<stop  offset="0.3916" style="stop-color:#A4A2A3"/>
		<stop  offset="0.4945" style="stop-color:#818181"/>
		<stop  offset="0.5659" style="stop-color:#717171"/>
		<stop  offset="0.6085" style="stop-color:#676767"/>
		<stop  offset="0.8356" style="stop-color:#989798"/>
	</radialGradient>
	<path fill="url(#SVGID_2_)" d="M103.544,102.065c0,0,3.996,6.079,10.824,4.6c7.203-1.562,15.787-17.646,18.184-21.68
		c-2.277,2.712-6.701-0.266-8.971-2.316c-4.08-3.688-5.932-9.528-7.404-14.626c-1.863-6.445-3.08-13.07-4.703-19.577
		c-1.4-5.611-3.236-11.055-5.883-16.206c-1.604-3.126-3.135-4.862-6.744-4.539c-2.783,0.251-5.551,2.671-7.566,4.418
		c-3.947,3.422-7.383,7.383-10.709,11.395c-2.656,3.207-5.162,6.537-7.711,9.829c-1.209,1.561-2.281,3.243-3.676,4.639
		c-2.473,2.478-5.264,4.353-6.848,4.913c-1.979,0.7-3.754,0.725-5.73,0.071c-8.891-2.944-11.809-17.111-14.193-24.761
		c-2.602-8.35-4.949-21.678-12.898-26.818c-5.307-3.432-11.842,0.942-15.867,4.307c-5.119,4.28-8.982,10.67-11.814,16.624
		c-0.604,1.271-4.186,10.835,0.693,6.757c2.762-2.309,6.244-4.787,10.357-2.922c3.607,1.637,5.809,5.912,7.307,9.347
		c4.586,10.513,6.625,21.935,11.475,32.361c1.803,3.879,4.252,7.948,8.203,9.924c4.688,2.345,9.934-0.029,13.959-2.528
		c6.848-4.252,11.889-11.731,16.742-18.018c2.535-3.28,5.066-6.563,7.738-9.737c0.043-0.051,0.07-0.082,0.107-0.127
		c0.105-0.113,0.236-0.252,0.424-0.457c0.436-0.474,0.893-0.926,1.348-1.382c-0.008,0.037,1.012-0.914,1.166-1.04
		c1.02-0.834,0.785-0.642,1.424-0.976c7.518-3.922,10.861,14.021,11.977,18.318c2.771,10.662,3.936,22.782,10.006,32.254
		C104.331,103.44,103.925,102.759,103.544,102.065z"/>
	<path fill="#8BB152" d="M255.991,0.33c-21.064-1.056-42.262,1.628-61.135,11.503c-16.221,8.489-28.873,21.556-39.814,36.007
		c-8.764,11.578-15.68,24.367-22.49,37.146c-2.396,4.033-10.98,20.118-18.184,21.68c-6.828,1.479-10.824-4.6-10.824-4.6
		c0.801,1.454,1.689,2.863,2.707,4.201c13.754,18.095,32.184-19.874,38.09-29.639c8.621-14.26,16.623-26.743,32.936-37.634
		c7.693-5.139,16.646-8.088,25.596-10.359c12.129-3.075,24.75-3.768,37.207-3.143c4.248,0.213,8.707-8.029,10.549-10.941
		C250.997,13.968,258.362,0.45,255.991,0.33z"/>
	<g>
		<linearGradient id="SVGID_3_" gradientUnits="userSpaceOnUse" x1="99.6602" y1="67.1416" x2="128.2301" y2="96.1918">
			<stop  offset="0.1073" style="stop-color:#696A6A;stop-opacity:0"/>
			<stop  offset="0.9764" style="stop-color:#3F403F"/>
		</linearGradient>
		<path fill="url(#SVGID_3_)" d="M123.581,82.669c-4.08-3.688-5.932-9.528-7.404-14.626c-1.863-6.445-3.08-13.07-4.703-19.577
			c-0.057-0.231-0.119-0.458-0.18-0.687L92.165,62.261c1.316,3.864,2.135,7.854,2.588,9.597c2.578,9.922,3.771,21.105,8.814,30.243
			c0.26,0.381,4.201,5.995,10.801,4.564c7.203-1.562,15.787-17.646,18.184-21.68C130.274,87.697,125.851,84.72,123.581,82.669z"/>
		<g>
			
				<linearGradient id="SVGID_4_" gradientUnits="userSpaceOnUse" x1="131.2695" y1="100.1484" x2="97.5761" y2="50.9042" gradientTransform="matrix(0.9994 -0.0335 0.0335 0.9994 -33.4952 -14.5926)">
				<stop  offset="0.0182" style="stop-color:#FFFFFF;stop-opacity:0"/>
				<stop  offset="0.9212" style="stop-color:#FFFFFF;stop-opacity:0.8"/>
			</linearGradient>
			<path opacity="0.6" fill="url(#SVGID_4_)" d="M109.075,99.17c-2.568,0.088-4.377-2.406-4.666-2.83
				c-2.787-5.534-4.236-12.231-5.643-18.727c-0.564-2.615-1.148-5.314-1.812-7.9c-0.096-0.363-0.207-0.841-0.34-1.4
				c-1.498-6.321-4.285-18.086-10.59-17.874c-0.953,0.031-1.896,0.353-2.807,0.952c-0.07,0.047-0.123,0.08-0.166,0.105
				c-0.506,0.316-0.668,0.484-1.357,1.192c-0.037,0.038-0.127,0.139-0.238,0.265l-0.09,0.001l-0.479,0.606
				c0.236-0.222,0.416-0.359,0.715-0.544c0.041-0.028,0.094-0.061,0.162-0.106c0.912-0.601,1.857-0.923,2.809-0.953
				c6.307-0.214,9.092,11.556,10.59,17.874c0.133,0.56,0.246,1.035,0.338,1.399c0.666,2.584,1.25,5.286,1.814,7.9
				c1.408,6.495,2.855,13.191,5.645,18.729c0.287,0.422,2.096,2.914,4.664,2.828c0.357-0.013,0.727-0.072,1.098-0.18
				c0.857-0.25,1.848-1.062,2.963-2.429c-0.541,0.465-1.049,0.774-1.514,0.909C109.802,99.097,109.433,99.16,109.075,99.17z"/>
			
				<radialGradient id="SVGID_5_" cx="164.752" cy="76.6162" r="11.4791" gradientTransform="matrix(0.9284 -0.0311 0.0335 0.9994 -64.4452 -13.3698)" gradientUnits="userSpaceOnUse">
				<stop  offset="0.0788" style="stop-color:#FFFFFF;stop-opacity:0.8"/>
				<stop  offset="0.9818" style="stop-color:#FFFFFF;stop-opacity:0"/>
			</radialGradient>
			<path fill="url(#SVGID_5_)" d="M81.698,52.829c0.041-0.028,0.094-0.062,0.164-0.105c0.91-0.6,1.855-0.922,2.809-0.953
				c6.303-0.212,9.092,11.554,10.59,17.874c0.131,0.56,0.244,1.037,0.338,1.399c0.662,2.583,1.248,5.287,1.812,7.9
				c1.406,6.495,2.855,13.19,5.645,18.729c0.287,0.424,2.096,2.913,4.666,2.828c0.355-0.013,0.725-0.072,1.096-0.181
				c0.398-0.116,0.83-0.366,1.287-0.726c-0.383,0.273-0.746,0.474-1.088,0.571c-0.371,0.108-0.738,0.17-1.096,0.181
				c-2.568,0.087-4.377-2.405-4.666-2.829c-2.789-5.536-4.236-12.233-5.645-18.728c-0.564-2.614-1.148-5.316-1.812-7.899
				c-0.094-0.364-0.205-0.842-0.34-1.401c-1.496-6.32-4.283-18.086-10.588-17.875c-0.953,0.031-1.898,0.354-2.809,0.953
				c-0.07,0.047-0.123,0.081-0.164,0.107c-0.195,0.119-0.34,0.229-0.482,0.346C81.501,52.958,81.587,52.897,81.698,52.829z"/>
		</g>
		<linearGradient id="SVGID_6_" gradientUnits="userSpaceOnUse" x1="22.0986" y1="36.1318" x2="39.0071" y2="86.857">
			<stop  offset="0.0182" style="stop-color:#FFFFFF;stop-opacity:0"/>
			<stop  offset="0.9212" style="stop-color:#FFFFFF;stop-opacity:0.8"/>
		</linearGradient>
		<path opacity="0.6" fill="url(#SVGID_6_)" d="M53.431,82.1c-3.336,2.007-6.043,2.982-8.273,2.982
			c-1.006,0-1.902-0.197-2.744-0.604c-3.314-1.609-5.412-5.299-6.869-8.336c-2.521-5.26-4.262-10.731-6.105-16.523
			c-1.656-5.207-3.367-10.594-5.695-15.766c-1.822-4.052-4.523-8.972-9.283-11.062c-1.441-0.634-2.938-0.955-4.445-0.955
			c-1.252,0-2.426,0.229-3.539,0.596c-0.943,0.368-2.154,1.02-3.471,2.178c1.533-0.709,3.205-1.174,5.029-1.174
			c1.508,0,3.004,0.322,4.445,0.957c4.758,2.09,7.461,7.01,9.283,11.062c2.326,5.173,4.039,10.559,5.695,15.766
			c1.842,5.792,3.582,11.264,6.105,16.524c1.455,3.035,3.553,6.726,6.869,8.334c0.842,0.408,1.738,0.605,2.742,0.605
			c2.232,0,4.939-0.976,8.273-2.982c1.434-0.863,2.789-1.886,4.088-3.021C54.851,81.188,54.151,81.665,53.431,82.1z"/>
		
			<radialGradient id="SVGID_7_" cx="11.9766" cy="64.7422" r="25.4126" gradientTransform="matrix(1.0314 0 0 1 15.6629 0)" gradientUnits="userSpaceOnUse">
			<stop  offset="0.0788" style="stop-color:#FFFFFF;stop-opacity:0.8"/>
			<stop  offset="0.9818" style="stop-color:#FFFFFF;stop-opacity:0"/>
		</radialGradient>
		<path fill="url(#SVGID_7_)" d="M51.696,83.54c-3.334,2.01-6.041,2.985-8.273,2.985c-1.004,0-1.902-0.199-2.744-0.606
			c-3.314-1.608-5.412-5.299-6.867-8.335c-2.523-5.261-4.264-10.731-6.105-16.523c-1.656-5.207-3.369-10.592-5.695-15.766
			c-1.822-4.053-4.525-8.971-9.283-11.063c-1.441-0.634-2.938-0.954-4.447-0.954c-1.824,0-3.496,0.463-5.027,1.173
			c0.586-0.517,1.146-0.92,1.678-1.253c-0.6,0.358-1.248,0.816-1.926,1.412c1.533-0.709,3.205-1.174,5.029-1.174
			c1.508,0,3.004,0.322,4.445,0.957c4.758,2.09,7.461,7.01,9.283,11.062c2.326,5.173,4.039,10.559,5.695,15.766
			c1.842,5.792,3.582,11.264,6.105,16.524c1.455,3.035,3.553,6.726,6.869,8.334c0.842,0.408,1.738,0.605,2.742,0.605
			c2.232,0,4.939-0.976,8.273-2.982c0.365-0.221,0.727-0.452,1.082-0.692C52.255,83.189,51.979,83.371,51.696,83.54z"/>
		
			<radialGradient id="SVGID_8_" cx="-226.7344" cy="-1503.9438" r="3.906" gradientTransform="matrix(1.3412 4.1774 -0.6907 0.2218 -625.9157 1325.4014)" gradientUnits="userSpaceOnUse">
			<stop  offset="0" style="stop-color:#FFFFFF"/>
			<stop  offset="0.7547" style="stop-color:#FFFFFF;stop-opacity:0"/>
		</radialGradient>
		<path opacity="0.8" fill="url(#SVGID_8_)" d="M113.999,60.979c-1.488,0.48-5.037-6.435-7.936-15.444
			c-2.889-9.01-4.025-16.699-2.537-17.175c1.492-0.479,5.041,6.435,7.936,15.443C114.356,52.812,115.491,60.5,113.999,60.979z"/>
		
			<radialGradient id="SVGID_9_" cx="-232.709" cy="-1099.5303" r="2.3809" gradientTransform="matrix(1.3412 4.1774 -0.9768 0.3137 -720.2986 1356.063)" gradientUnits="userSpaceOnUse">
			<stop  offset="0" style="stop-color:#FFFFFF"/>
			<stop  offset="0.7547" style="stop-color:#FFFFFF;stop-opacity:0"/>
		</radialGradient>
		<path opacity="0.9" fill="url(#SVGID_9_)" d="M44.804,48.966c-1.283,0.413-3.75-3.701-5.518-9.194
			c-1.76-5.492-2.146-10.277-0.865-10.688c1.287-0.413,3.754,3.703,5.52,9.196C45.704,43.771,46.089,48.554,44.804,48.966z"/>
		
			<radialGradient id="SVGID_10_" cx="-229.2197" cy="-1064.354" r="2.3804" gradientTransform="matrix(1.3834 4.1774 -1.0075 0.3137 -726.6057 1356.063)" gradientUnits="userSpaceOnUse">
			<stop  offset="0" style="stop-color:#FFFFFF"/>
			<stop  offset="0.7547" style="stop-color:#FFFFFF;stop-opacity:0"/>
		</radialGradient>
		<path opacity="0.9" fill="url(#SVGID_10_)" d="M31.919,74.574c-1.322,0.413-3.867-3.702-5.691-9.195
			c-1.814-5.491-2.213-10.276-0.891-10.687c1.326-0.413,3.873,3.702,5.691,9.195C32.849,69.379,33.247,74.162,31.919,74.574z"/>
		<radialGradient id="SVGID_11_" cx="35.9033" cy="37.9282" r="28.6705" gradientUnits="userSpaceOnUse">
			<stop  offset="0.0788" style="stop-color:#FFFFFF;stop-opacity:0.8"/>
			<stop  offset="0.9818" style="stop-color:#FFFFFF;stop-opacity:0"/>
		</radialGradient>
		<path fill="url(#SVGID_11_)" d="M66.05,60.894c-1.746,1.408-3.418,2.433-4.514,2.82c-1.979,0.7-3.752,0.726-5.73,0.071
			c-8.889-2.944-11.809-17.111-14.191-24.76c-2.602-8.351-4.949-21.679-12.898-26.819c-5.307-3.431-11.842,0.942-15.867,4.306
			c-2.766,2.312-5.152,5.247-7.221,8.387c1.182-1.71,2.479-3.327,3.869-4.816c0.146-0.162,0.299-0.317,0.447-0.475
			c0.17-0.177,0.334-0.363,0.508-0.534c0.668-0.676,1.357-1.32,2.076-1.92c4.025-3.365,10.561-7.738,15.867-4.306
			c7.949,5.139,10.297,18.467,12.898,26.818c2.383,7.648,5.303,21.815,14.193,24.76c1.977,0.654,3.75,0.628,5.729-0.072
			c1.189-0.418,3.059-1.59,4.963-3.192C66.134,61.073,66.093,60.983,66.05,60.894z"/>
		<radialGradient id="SVGID_12_" cx="109.2041" cy="57.9922" r="26.2596" gradientUnits="userSpaceOnUse">
			<stop  offset="0.0788" style="stop-color:#FFFFFF;stop-opacity:0.8"/>
			<stop  offset="0.9818" style="stop-color:#FFFFFF;stop-opacity:0"/>
		</radialGradient>
		<path fill="url(#SVGID_12_)" d="M122.78,83.467c-4.08-3.685-5.932-9.526-7.404-14.624c-1.861-6.445-3.078-13.07-4.701-19.577
			c-1.4-5.61-3.238-11.055-5.883-16.205c-1.605-3.126-3.137-4.863-6.746-4.539c-2.783,0.251-5.551,2.671-7.566,4.417
			c-1.332,1.156-2.59,2.388-3.822,3.646c0.008,0.094,0.016,0.186,0.023,0.279c0.135-0.135,0.264-0.275,0.4-0.409
			c0.996-0.988,2.016-1.954,3.078-2.876c2.018-1.745,4.785-4.165,7.566-4.417c3.609-0.323,5.141,1.413,6.746,4.538
			c2.645,5.151,4.482,10.595,5.883,16.206c1.623,6.508,2.84,13.132,4.703,19.577c1.473,5.099,3.322,10.94,7.402,14.625
			c2.232,2.014,6.533,4.911,8.844,2.445c0.166-0.29,0.316-0.548,0.447-0.769C129.476,88.498,125.052,85.52,122.78,83.467z"/>
	</g>
	<linearGradient id="SVGID_13_" gradientUnits="userSpaceOnUse" x1="99.6602" y1="67.1416" x2="128.2301" y2="96.1918">
		<stop  offset="0.1073" style="stop-color:#696A6A;stop-opacity:0"/>
		<stop  offset="0.9764" style="stop-color:#3F403F"/>
	</linearGradient>
	<path fill="url(#SVGID_13_)" d="M123.581,82.669c-4.08-3.688-5.932-9.528-7.404-14.626c-1.863-6.445-3.08-13.07-4.703-19.577
		c-0.057-0.231-0.119-0.458-0.18-0.687L92.165,62.261c1.316,3.864,2.135,7.854,2.588,9.597c2.578,9.922,3.771,21.105,8.814,30.243
		c0.26,0.381,4.201,5.995,10.801,4.564c7.203-1.562,15.787-17.646,18.184-21.68C130.274,87.697,125.851,84.72,123.581,82.669z"/>
	<g>
		
			<linearGradient id="SVGID_14_" gradientUnits="userSpaceOnUse" x1="131.2695" y1="100.1484" x2="97.5761" y2="50.9042" gradientTransform="matrix(0.9994 -0.0335 0.0335 0.9994 -33.4952 -14.5926)">
			<stop  offset="0.0182" style="stop-color:#FFFFFF;stop-opacity:0"/>
			<stop  offset="0.9212" style="stop-color:#FFFFFF;stop-opacity:0.8"/>
		</linearGradient>
		<path opacity="0.6" fill="url(#SVGID_14_)" d="M109.075,99.17c-2.568,0.088-4.377-2.406-4.666-2.83
			c-2.787-5.534-4.236-12.231-5.643-18.727c-0.564-2.615-1.148-5.314-1.812-7.9c-0.096-0.363-0.207-0.841-0.34-1.4
			c-1.498-6.321-4.285-18.086-10.59-17.874c-0.953,0.031-1.896,0.353-2.807,0.952c-0.07,0.047-0.123,0.08-0.166,0.105
			c-0.506,0.316-0.668,0.484-1.357,1.192c-0.037,0.038-0.127,0.139-0.238,0.265l-0.09,0.001l-0.479,0.606
			c0.236-0.222,0.416-0.359,0.715-0.544c0.041-0.028,0.094-0.061,0.162-0.106c0.912-0.601,1.857-0.923,2.809-0.953
			c6.307-0.214,9.092,11.556,10.59,17.874c0.133,0.56,0.246,1.035,0.338,1.399c0.666,2.584,1.25,5.286,1.814,7.9
			c1.408,6.495,2.855,13.191,5.645,18.729c0.287,0.422,2.096,2.914,4.664,2.828c0.357-0.013,0.727-0.072,1.098-0.18
			c0.857-0.25,1.848-1.062,2.963-2.429c-0.541,0.465-1.049,0.774-1.514,0.909C109.802,99.097,109.433,99.16,109.075,99.17z"/>
		
			<radialGradient id="SVGID_15_" cx="164.752" cy="76.6162" r="11.4791" gradientTransform="matrix(0.9284 -0.0311 0.0335 0.9994 -64.4452 -13.3698)" gradientUnits="userSpaceOnUse">
			<stop  offset="0.0788" style="stop-color:#FFFFFF;stop-opacity:0.8"/>
			<stop  offset="0.9818" style="stop-color:#FFFFFF;stop-opacity:0"/>
		</radialGradient>
		<path fill="url(#SVGID_15_)" d="M81.698,52.829c0.041-0.028,0.094-0.062,0.164-0.105c0.91-0.6,1.855-0.922,2.809-0.953
			c6.303-0.212,9.092,11.554,10.59,17.874c0.131,0.56,0.244,1.037,0.338,1.399c0.662,2.583,1.248,5.287,1.812,7.9
			c1.406,6.495,2.855,13.19,5.645,18.729c0.287,0.424,2.096,2.913,4.666,2.828c0.355-0.013,0.725-0.072,1.096-0.181
			c0.398-0.116,0.83-0.366,1.287-0.726c-0.383,0.273-0.746,0.474-1.088,0.571c-0.371,0.108-0.738,0.17-1.096,0.181
			c-2.568,0.087-4.377-2.405-4.666-2.829c-2.789-5.536-4.236-12.233-5.645-18.728c-0.564-2.614-1.148-5.316-1.812-7.899
			c-0.094-0.364-0.205-0.842-0.34-1.401c-1.496-6.32-4.283-18.086-10.588-17.875c-0.953,0.031-1.898,0.354-2.809,0.953
			c-0.07,0.047-0.123,0.081-0.164,0.107c-0.195,0.119-0.34,0.229-0.482,0.346C81.501,52.958,81.587,52.897,81.698,52.829z"/>
	</g>
	<linearGradient id="SVGID_16_" gradientUnits="userSpaceOnUse" x1="29.4717" y1="57.9741" x2="69.4867" y2="123.5987">
		<stop  offset="0.0182" style="stop-color:#FFFFFF;stop-opacity:0"/>
		<stop  offset="0.9212" style="stop-color:#FFFFFF;stop-opacity:0.8"/>
	</linearGradient>
	<path opacity="0.35" fill="url(#SVGID_16_)" d="M53.431,82.1c-3.336,2.007-6.043,2.982-8.273,2.982
		c-1.006,0-1.902-0.197-2.744-0.604c-3.314-1.609-5.412-5.299-6.869-8.336c-2.521-5.26-4.262-10.731-6.105-16.523
		c-1.656-5.207-3.367-10.594-5.695-15.766c-1.822-4.052-4.523-8.972-9.283-11.062c-1.441-0.634-2.938-0.955-4.445-0.955
		c-1.252,0-2.426,0.229-3.539,0.596c-0.943,0.368-2.154,1.02-3.471,2.178c1.533-0.709,3.205-1.174,5.029-1.174
		c1.508,0,3.004,0.322,4.445,0.957c4.758,2.09,7.461,7.01,9.283,11.062c2.326,5.173,4.039,10.559,5.695,15.766
		c1.842,5.792,3.582,11.264,6.105,16.524c1.455,3.035,3.553,6.726,6.869,8.334c0.842,0.408,1.738,0.605,2.742,0.605
		c2.232,0,4.939-0.976,8.273-2.982c1.434-0.863,2.789-1.886,4.088-3.021C54.851,81.188,54.151,81.665,53.431,82.1z"/>
	
		<radialGradient id="SVGID_17_" cx="11.9766" cy="64.7422" r="25.4126" gradientTransform="matrix(1.0314 0 0 1 15.6629 0)" gradientUnits="userSpaceOnUse">
		<stop  offset="0.0788" style="stop-color:#FFFFFF;stop-opacity:0.8"/>
		<stop  offset="0.9818" style="stop-color:#FFFFFF;stop-opacity:0"/>
	</radialGradient>
	<path fill="url(#SVGID_17_)" d="M51.696,83.54c-3.334,2.01-6.041,2.985-8.273,2.985c-1.004,0-1.902-0.199-2.744-0.606
		c-3.314-1.608-5.412-5.299-6.867-8.335c-2.523-5.261-4.264-10.731-6.105-16.523c-1.656-5.207-3.369-10.592-5.695-15.766
		c-1.822-4.053-4.525-8.971-9.283-11.063c-1.441-0.634-2.938-0.954-4.447-0.954c-1.824,0-3.496,0.463-5.027,1.173
		c0.586-0.517,1.146-0.92,1.678-1.253c-0.6,0.358-1.248,0.816-1.926,1.412c1.533-0.709,3.205-1.174,5.029-1.174
		c1.508,0,3.004,0.322,4.445,0.957c4.758,2.09,7.461,7.01,9.283,11.062c2.326,5.173,4.039,10.559,5.695,15.766
		c1.842,5.792,3.582,11.264,6.105,16.524c1.455,3.035,3.553,6.726,6.869,8.334c0.842,0.408,1.738,0.605,2.742,0.605
		c2.232,0,4.939-0.976,8.273-2.982c0.365-0.221,0.727-0.452,1.082-0.692C52.255,83.189,51.979,83.371,51.696,83.54z"/>
	
		<radialGradient id="SVGID_18_" cx="-226.7344" cy="-1503.9438" r="3.906" gradientTransform="matrix(1.3412 4.1774 -0.6907 0.2218 -625.9157 1325.4014)" gradientUnits="userSpaceOnUse">
		<stop  offset="0" style="stop-color:#FFFFFF"/>
		<stop  offset="0.7547" style="stop-color:#FFFFFF;stop-opacity:0"/>
	</radialGradient>
	<path opacity="0.8" fill="url(#SVGID_18_)" d="M113.999,60.979c-1.488,0.48-5.037-6.435-7.936-15.444
		c-2.889-9.01-4.025-16.699-2.537-17.175c1.492-0.479,5.041,6.435,7.936,15.443C114.356,52.812,115.491,60.5,113.999,60.979z"/>
	
		<radialGradient id="SVGID_19_" cx="-341.834" cy="-838.1387" r="2.3809" gradientTransform="matrix(0.7977 2.4845 -1.4808 0.4755 -926.8213 1286.8456)" gradientUnits="userSpaceOnUse">
		<stop  offset="0" style="stop-color:#FFFFFF"/>
		<stop  offset="0.7547" style="stop-color:#FFFFFF;stop-opacity:0"/>
	</radialGradient>
	<path opacity="0.9" fill="url(#SVGID_19_)" d="M43.511,44.938c-1.945,0.625-4.369-1.517-5.426-4.78
		c-1.043-3.269-0.314-6.421,1.631-7.047c1.949-0.624,4.373,1.517,5.424,4.782C46.19,41.158,45.46,44.312,43.511,44.938z"/>
	
		<radialGradient id="SVGID_20_" cx="-229.2197" cy="-1064.354" r="2.3804" gradientTransform="matrix(1.3834 4.1774 -1.0075 0.3137 -726.6057 1356.063)" gradientUnits="userSpaceOnUse">
		<stop  offset="0" style="stop-color:#FFFFFF"/>
		<stop  offset="0.7547" style="stop-color:#FFFFFF;stop-opacity:0"/>
	</radialGradient>
	<path opacity="0.9" fill="url(#SVGID_20_)" d="M31.919,74.574c-1.322,0.413-3.867-3.702-5.691-9.195
		c-1.814-5.491-2.213-10.276-0.891-10.687c1.326-0.413,3.873,3.702,5.691,9.195C32.849,69.379,33.247,74.162,31.919,74.574z"/>
	<radialGradient id="SVGID_21_" cx="35.9033" cy="37.9282" r="28.6705" gradientUnits="userSpaceOnUse">
		<stop  offset="0.0788" style="stop-color:#FFFFFF;stop-opacity:0.8"/>
		<stop  offset="0.9818" style="stop-color:#FFFFFF;stop-opacity:0"/>
	</radialGradient>
	<path fill="url(#SVGID_21_)" d="M66.05,60.894c-1.746,1.408-3.418,2.433-4.514,2.82c-1.979,0.7-3.752,0.726-5.73,0.071
		c-8.889-2.944-11.809-17.111-14.191-24.76c-2.602-8.351-4.949-21.679-12.898-26.819c-5.307-3.431-11.842,0.942-15.867,4.306
		c-2.766,2.312-5.152,5.247-7.221,8.387c1.182-1.71,2.479-3.327,3.869-4.816c0.146-0.162,0.299-0.317,0.447-0.475
		c0.17-0.177,0.334-0.363,0.508-0.534c0.668-0.676,1.357-1.32,2.076-1.92c4.025-3.365,10.561-7.738,15.867-4.306
		c7.949,5.139,10.297,18.467,12.898,26.818c2.383,7.648,5.303,21.815,14.193,24.76c1.977,0.654,3.75,0.628,5.729-0.072
		c1.189-0.418,3.059-1.59,4.963-3.192C66.134,61.073,66.093,60.983,66.05,60.894z"/>
	<radialGradient id="SVGID_22_" cx="109.2041" cy="57.9922" r="26.2596" gradientUnits="userSpaceOnUse">
		<stop  offset="0.0788" style="stop-color:#FFFFFF;stop-opacity:0.8"/>
		<stop  offset="0.9818" style="stop-color:#FFFFFF;stop-opacity:0"/>
	</radialGradient>
	<path fill="url(#SVGID_22_)" d="M122.78,83.467c-4.08-3.685-5.932-9.526-7.404-14.624c-1.861-6.445-3.078-13.07-4.701-19.577
		c-1.4-5.61-3.238-11.055-5.883-16.205c-1.605-3.126-3.137-4.863-6.746-4.539c-2.783,0.251-5.551,2.671-7.566,4.417
		c-1.332,1.156-2.59,2.388-3.822,3.646c0.008,0.094,0.016,0.186,0.023,0.279c0.135-0.135,0.264-0.275,0.4-0.409
		c0.996-0.988,2.016-1.954,3.078-2.876c2.018-1.745,4.785-4.165,7.566-4.417c3.609-0.323,5.141,1.413,6.746,4.538
		c2.645,5.151,4.482,10.595,5.883,16.206c1.623,6.508,2.84,13.132,4.703,19.577c1.473,5.099,3.322,10.94,7.402,14.625
		c2.232,2.014,6.533,4.911,8.844,2.445c0.166-0.29,0.316-0.548,0.447-0.769C129.476,88.498,125.052,85.52,122.78,83.467z"/>
	<g>
		<linearGradient id="SVGID_23_" gradientUnits="userSpaceOnUse" x1="182.667" y1="41.5566" x2="247.4888" y2="20.9097">
			<stop  offset="0.0182" style="stop-color:#FFFFFF;stop-opacity:0"/>
			<stop  offset="0.9212" style="stop-color:#FFFFFF;stop-opacity:0.8"/>
		</linearGradient>
		<path opacity="0.6" fill="url(#SVGID_23_)" d="M245.251,18.148c-1.963,2.36-2.92,2.467-2.922,2.469l-0.018-0.002
			c-0.355,0.209-0.543,0.24-0.543,0.24c-2.832-0.143-5.637-0.214-8.332-0.214c-10.93,0-20.699,1.13-29.869,3.455
			c-4.795,1.218-10.445,2.827-16.102,5.224c-3.395,1.469-6.777,3.225-9.975,5.359c-12.529,8.365-20.359,17.655-27.465,28.368
			c6.678-9.674,14.232-18.176,25.785-25.889c8.699-5.809,18.805-8.834,26.637-10.82c9.168-2.326,18.938-3.457,29.867-3.457
			c2.697,0,5.502,0.073,8.334,0.216c0.002-0.001,0.959-0.109,2.922-2.469c0.969-1.163,1.877-2.507,2.668-3.756
			C245.921,17.312,245.591,17.742,245.251,18.148z"/>
		<radialGradient id="SVGID_24_" cx="217.2188" cy="33.0581" r="27.9425" gradientUnits="userSpaceOnUse">
			<stop  offset="0.0788" style="stop-color:#FFFFFF;stop-opacity:0.8"/>
			<stop  offset="0.9818" style="stop-color:#FFFFFF;stop-opacity:0"/>
		</radialGradient>
		<path fill="url(#SVGID_24_)" d="M244.444,19.053c-0.268,0.354-0.537,0.704-0.812,1.036c-1.963,2.36-2.92,2.468-2.922,2.469
			c-2.834-0.143-5.637-0.215-8.334-0.215c-10.93,0-20.699,1.13-29.867,3.456c-7.832,1.985-17.938,5.012-26.637,10.82
			c-7.654,5.111-13.549,10.569-18.6,16.483c-2.578,3.179-4.951,6.487-7.246,9.945c6.678-9.674,14.232-18.176,25.785-25.889
			c8.699-5.809,18.805-8.834,26.637-10.82c9.168-2.326,18.938-3.457,29.867-3.457c2.697,0,5.502,0.073,8.334,0.216
			c0.002-0.001,0.959-0.109,2.922-2.469c0.969-1.163,1.877-2.507,2.668-3.756c-0.318,0.439-0.648,0.869-0.988,1.275
			C244.958,18.503,244.694,18.792,244.444,19.053z"/>
		<radialGradient id="SVGID_25_" cx="217.2188" cy="33.0581" r="27.9425" gradientUnits="userSpaceOnUse">
			<stop  offset="0.0788" style="stop-color:#FFFFFF;stop-opacity:0.8"/>
			<stop  offset="0.9818" style="stop-color:#FFFFFF;stop-opacity:0"/>
		</radialGradient>
		<path fill="url(#SVGID_25_)" d="M244.444,19.053c-0.268,0.354-0.537,0.704-0.812,1.036c-1.963,2.36-2.92,2.468-2.922,2.469
			c-2.834-0.143-5.637-0.215-8.334-0.215c-10.93,0-20.699,1.13-29.867,3.456c-7.832,1.985-17.938,5.012-26.637,10.82
			c-7.654,5.111-13.549,10.569-18.6,16.483c-2.578,3.179-4.951,6.487-7.246,9.945c6.678-9.674,14.232-18.176,25.785-25.889
			c8.699-5.809,18.805-8.834,26.637-10.82c9.168-2.326,18.938-3.457,29.867-3.457c2.697,0,5.502,0.073,8.334,0.216
			c0.002-0.001,0.959-0.109,2.922-2.469c0.969-1.163,1.877-2.507,2.668-3.756c-0.318,0.439-0.648,0.869-0.988,1.275
			C244.958,18.503,244.694,18.792,244.444,19.053z"/>
		
			<radialGradient id="SVGID_26_" cx="81.5967" cy="-1329.3271" r="3.906" gradientTransform="matrix(4.3548 -0.5338 0.1368 1.1154 44.7539 1549.5093)" gradientUnits="userSpaceOnUse">
			<stop  offset="0" style="stop-color:#FFFFFF"/>
			<stop  offset="0.7547" style="stop-color:#FFFFFF;stop-opacity:0"/>
		</radialGradient>
		<path opacity="0.8" fill="url(#SVGID_26_)" d="M235.243,21.138c0.297,2.404-7.074,5.28-16.469,6.442
			c-9.391,1.144-17.242,0.125-17.535-2.278c-0.297-2.407,7.076-5.287,16.469-6.439C227.101,17.706,234.948,18.728,235.243,21.138z"
			/>
		<radialGradient id="SVGID_27_" cx="228.6377" cy="14.4448" r="25.3903" gradientUnits="userSpaceOnUse">
			<stop  offset="0.0788" style="stop-color:#FFFFFF;stop-opacity:0.8"/>
			<stop  offset="0.9818" style="stop-color:#FFFFFF;stop-opacity:0"/>
		</radialGradient>
		<path fill="url(#SVGID_27_)" d="M255.917,1.17c-5.057-0.336-9.891-0.421-14.574-0.276c-8.182,0.458-15.785,1.547-23.061,3.312
			c-8.012,1.947-18.381,4.892-27.506,10.428c-8.027,4.872-14.303,10.052-19.758,15.65c-2.795,3.005-5.389,6.133-7.918,9.396
			c7.33-9.139,15.463-17.185,27.582-24.539c9.123-5.537,19.492-8.48,27.504-10.426c9.383-2.279,19.295-3.445,30.307-3.562
			c2.719-0.028,5.537,0.008,8.383,0.11c0,0,0.025-0.003,0.066-0.014C256.603,1.227,256.253,1.191,255.917,1.17z"/>
		
			<radialGradient id="SVGID_28_" cx="124.8252" cy="-2103.2861" r="2.3115" gradientTransform="matrix(4.5744 -0.5556 0.2087 0.5366 100.9749 1199.7611)" gradientUnits="userSpaceOnUse">
			<stop  offset="0" style="stop-color:#FFFFFF"/>
			<stop  offset="0.7547" style="stop-color:#FFFFFF;stop-opacity:0"/>
		</radialGradient>
		<path opacity="0.8" fill="url(#SVGID_28_)" d="M243.591,0.503c0.268,0.685-4.25,1.812-10.088,2.523
			c-5.836,0.707-10.783,0.727-11.047,0.042c-0.27-0.687,4.246-1.815,10.084-2.525C238.378-0.164,243.325-0.184,243.591,0.503z"/>
	</g>
	<rect x="35.903" y="95.963" fill="#8BB152" width="14.83" height="15.125"/>
	<g>
		<path fill="#929396" d="M190.067,113.614l-2.09-8.238h1.124l0.978,4.168c0.244,1.027,0.465,2.054,0.611,2.848h0.024
			c0.135-0.818,0.392-1.796,0.673-2.859l1.1-4.156h1.112l1.002,4.181c0.232,0.978,0.452,1.955,0.575,2.823h0.023
			c0.172-0.904,0.404-1.821,0.66-2.848l1.088-4.156h1.088l-2.334,8.238h-1.113l-1.038-4.29c-0.257-1.051-0.428-1.857-0.538-2.688
			h-0.024c-0.134,0.818-0.33,1.625-0.636,2.688l-1.173,4.29H190.067z"/>
		<path fill="#929396" d="M208.21,109.752h-3.189v2.97h3.568v0.893h-4.645v-8.238h4.461v0.893h-3.385v2.604h3.189V109.752z"/>
		<path fill="#929396" d="M214.862,105.499c0.465-0.11,1.21-0.184,1.943-0.184c1.063,0,1.748,0.184,2.249,0.599
			c0.428,0.318,0.696,0.807,0.696,1.455c0,0.807-0.537,1.503-1.393,1.809v0.036c0.781,0.184,1.698,0.831,1.698,2.054
			c0,0.709-0.28,1.259-0.708,1.65c-0.562,0.525-1.492,0.77-2.836,0.77c-0.733,0-1.296-0.049-1.65-0.098V105.499z M215.926,108.872
			h0.966c1.111,0,1.771-0.599,1.771-1.394c0-0.953-0.721-1.345-1.796-1.345c-0.489,0-0.771,0.037-0.941,0.074V108.872z
			 M215.926,112.808c0.22,0.037,0.513,0.049,0.892,0.049c1.101,0,2.115-0.403,2.115-1.602c0-1.111-0.966-1.589-2.127-1.589h-0.88
			V112.808z"/>
		<path fill="#929396" d="M239.606,113.357c-0.379,0.195-1.174,0.392-2.176,0.392c-2.322,0-4.058-1.467-4.058-4.181
			c0-2.591,1.747-4.326,4.302-4.326c1.015,0,1.675,0.22,1.956,0.366l-0.27,0.868c-0.391-0.195-0.966-0.343-1.649-0.343
			c-1.932,0-3.215,1.235-3.215,3.398c0,2.028,1.161,3.312,3.153,3.312c0.66,0,1.32-0.135,1.748-0.343L239.606,113.357z"/>
		<path fill="#929396" d="M245.843,105.486c0.538-0.098,1.32-0.171,2.041-0.171c1.137,0,1.883,0.22,2.384,0.672
			c0.403,0.367,0.647,0.929,0.647,1.577c0,1.075-0.685,1.797-1.54,2.09v0.036c0.624,0.221,1.002,0.808,1.198,1.663
			c0.269,1.148,0.464,1.943,0.636,2.261h-1.101c-0.135-0.244-0.317-0.941-0.538-1.968c-0.244-1.137-0.696-1.564-1.662-1.602h-1.002
			v3.569h-1.063V105.486z M246.906,109.238h1.088c1.137,0,1.857-0.623,1.857-1.564c0-1.062-0.77-1.527-1.895-1.527
			c-0.513,0-0.867,0.037-1.051,0.086V109.238z"/>
		<path fill="#929396" d="M261.565,109.752h-3.19v2.97h3.569v0.893H257.3v-8.238h4.461v0.893h-3.386v2.604h3.19V109.752z"/>
		<path fill="#929396" d="M269.55,111.023l-0.855,2.591h-1.1l2.811-8.238h1.271l2.812,8.238h-1.137l-0.88-2.591H269.55z
			 M272.264,110.192l-0.819-2.371c-0.183-0.538-0.306-1.027-0.428-1.504h-0.024c-0.122,0.477-0.244,0.99-0.415,1.491l-0.807,2.384
			H272.264z"/>
		<path fill="#929396" d="M281.214,106.281h-2.506v-0.905h6.1v0.905h-2.518v7.333h-1.076V106.281z"/>
		<path fill="#929396" d="M291.68,105.376v8.238h-1.075v-8.238H291.68z"/>
		<path fill="#929396" d="M305.469,109.41c0,2.823-1.724,4.339-3.825,4.339c-2.188,0-3.703-1.699-3.703-4.192
			c0-2.616,1.613-4.327,3.812-4.327C304.015,105.229,305.469,106.953,305.469,109.41z M299.064,109.532
			c0,1.772,0.953,3.349,2.64,3.349c1.688,0,2.641-1.552,2.641-3.422c0-1.65-0.855-3.361-2.628-3.361
			S299.064,107.735,299.064,109.532z"/>
		<path fill="#929396" d="M311.743,113.614v-8.238h1.174l2.628,4.168c0.599,0.966,1.087,1.834,1.466,2.677l0.037-0.012
			c-0.098-1.101-0.122-2.103-0.122-3.386v-3.447h1.002v8.238h-1.075l-2.616-4.18c-0.574-0.917-1.124-1.858-1.527-2.75l-0.037,0.012
			c0.062,1.039,0.073,2.029,0.073,3.397v3.521H311.743z"/>
		<path fill="#929396" d="M324.545,112.318c0.477,0.306,1.161,0.538,1.894,0.538c1.088,0,1.724-0.574,1.724-1.405
			c0-0.758-0.439-1.21-1.552-1.626c-1.345-0.488-2.176-1.197-2.176-2.347c0-1.283,1.063-2.236,2.664-2.236
			c0.831,0,1.455,0.195,1.81,0.403l-0.294,0.867c-0.257-0.158-0.807-0.391-1.552-0.391c-1.125,0-1.553,0.672-1.553,1.234
			c0,0.77,0.501,1.148,1.638,1.589c1.394,0.538,2.091,1.21,2.091,2.42c0,1.271-0.93,2.384-2.873,2.384
			c-0.794,0-1.662-0.245-2.102-0.538L324.545,112.318z"/>
	</g>
	<g>
		<path fill="#434648" d="M187.843,68.789h8.729v18.815c0,0.747,0.037,1.256,0.111,1.53c0.076,0.272,0.162,0.46,0.262,0.562
			c0.102,0.097,0.287,0.222,0.561,0.371s0.734,0.224,1.381,0.224h12.76V57.457h8.73v32.834h8.133c0.797,0,1.691-0.101,2.688-0.299
			c0.994-0.199,1.865-0.721,2.611-1.567c0.697-0.796,1.143-1.715,1.344-2.76c0.199-1.046,0.297-1.99,0.297-2.836V57.457h8.732
			v26.715c0,1.991-0.312,3.83-0.934,5.524c-0.623,1.688-1.506,3.082-2.648,4.178c-1.443,1.291-3.121,2.14-5.037,2.535
			c-1.916,0.397-3.596,0.598-5.037,0.598h-35.594c-0.896,0-1.93-0.137-3.098-0.411c-1.168-0.271-2.127-0.932-2.871-1.978
			c-0.498-0.695-0.811-1.479-0.934-2.35c-0.125-0.87-0.186-1.58-0.186-2.127V68.789z"/>
	</g>
	<rect x="187.843" y="57.457" fill="#8BB152" width="8.729" height="9.008"/>
	<polygon fill="#8BB152" points="337.575,59.797 332.214,59.797 332.214,42.85 340.944,42.85 	"/>
	<path fill="#434648" d="M266.042,96.954c-1,0-2.045-0.037-3.143-0.112c-1.096-0.076-2.166-0.286-3.215-0.633
		c-1.047-0.351-2.068-0.863-3.064-1.536c-0.998-0.675-1.896-1.58-2.693-2.728c-1.297-1.896-2.092-4.115-2.393-6.656
		c-0.299-2.541-0.447-5.131-0.447-7.776c0-1.842,0.035-3.578,0.111-5.195c0.074-1.62,0.273-3.117,0.598-4.485
		c0.322-1.372,0.799-2.63,1.422-3.776c0.621-1.146,1.48-2.194,2.578-3.144c1.098-0.944,2.307-1.669,3.627-2.168
		c1.322-0.497,2.656-0.858,4-1.083c1.346-0.224,2.643-0.362,3.889-0.411c1.246-0.05,2.342-0.074,3.291-0.074
		c2.342,0,4.646,0.138,6.916,0.41c2.268,0.275,4.324,0.986,6.166,2.132c1.148,0.747,2.082,1.597,2.807,2.541
		c0.721,0.947,1.295,1.983,1.719,3.103c0.424,1.122,0.711,2.293,0.861,3.516c0.148,1.222,0.225,2.455,0.225,3.702
		c0,0.996-0.104,2.032-0.301,3.103c-0.197,1.072-0.721,2.033-1.57,2.878c-0.598,0.599-1.258,0.999-1.98,1.197
		c-0.723,0.2-1.482,0.299-2.281,0.299h-23.029c0,0.849,0.049,1.82,0.15,2.915c0.098,1.1,0.223,1.945,0.373,2.542
		c0.299,1.048,0.723,1.882,1.271,2.505c0.549,0.626,1.197,1.098,1.941,1.422c0.75,0.326,1.535,0.535,2.357,0.636
		c0.822,0.099,1.633,0.148,2.432,0.148h19.365v6.73H266.042z M278.304,73.326c0.846,0,1.383-0.249,1.607-0.747
		c0.225-0.499,0.336-1.021,0.336-1.571c0-1.245-0.26-2.318-0.785-3.213c-0.523-0.898-1.109-1.596-1.756-2.097
		c-1.096-0.848-2.309-1.356-3.627-1.531c-1.322-0.173-2.605-0.262-3.852-0.262c-0.598,0-1.246,0.012-1.945,0.038
		c-0.697,0.024-1.418,0.112-2.168,0.261c-0.748,0.149-1.482,0.412-2.205,0.784c-0.723,0.373-1.385,0.888-1.98,1.533
		c-0.898,0.998-1.41,2.057-1.533,3.179c-0.125,1.123-0.213,2.33-0.262,3.626H278.304z"/>
	<path fill="#434648" d="M302.976,44.614v12.711h11.592c1.195,0,2.43,0.075,3.699,0.225c1.271,0.146,2.518,0.448,3.74,0.899
		c1.219,0.444,2.379,1.094,3.477,1.941c1.096,0.848,2.068,1.995,2.916,3.439c1.094,1.845,1.805,3.927,2.131,6.244
		c0.324,2.317,0.486,4.747,0.486,7.291c0,3.238-0.225,5.895-0.672,7.963c-0.449,2.066-1.074,3.773-1.871,5.121
		c-0.797,1.396-1.744,2.517-2.842,3.365c-1.096,0.847-2.256,1.509-3.477,1.98c-1.221,0.476-2.467,0.784-3.736,0.934
		c-1.273,0.15-2.482,0.226-3.629,0.226h-12.486c-1.148,0-2.256-0.075-3.326-0.226c-1.074-0.149-2.057-0.646-2.955-1.495
		c-0.799-0.748-1.297-1.557-1.496-2.43c-0.197-0.873-0.299-1.707-0.299-2.504V44.614H302.976z M302.976,86.934
		c0,0.401,0.014,0.838,0.041,1.309c0.021,0.477,0.209,0.91,0.559,1.309c0.297,0.301,0.66,0.486,1.084,0.562
		c0.422,0.074,0.859,0.11,1.309,0.11h6.355c0.6,0,1.271-0.024,2.016-0.075c0.75-0.048,1.498-0.21,2.246-0.484
		c0.748-0.273,1.482-0.674,2.207-1.197c0.721-0.523,1.334-1.283,1.832-2.279c0.248-0.548,0.535-1.432,0.859-2.656
		c0.322-1.219,0.484-3.151,0.484-5.795c0-3.139-0.186-5.406-0.561-6.803c-0.373-1.395-0.635-2.244-0.783-2.544
		c-0.449-0.896-0.984-1.631-1.609-2.204c-0.623-0.573-1.297-1.021-2.018-1.346c-0.723-0.325-1.471-0.535-2.242-0.636
		c-0.775-0.1-1.486-0.148-2.133-0.148h-9.646V86.934z"/>
	<path fill="#434648" d="M383.173,92.579c-0.199,1.122-0.797,2.082-1.795,2.877c-0.846,0.701-1.83,1.123-2.955,1.272
		c-1.119,0.15-2.201,0.226-3.25,0.226H361.19c-2.293,0-4.248-0.211-5.869-0.638c-1.621-0.421-3.102-1.204-4.449-2.353
		c-1.645-1.444-2.73-3.14-3.252-5.086c-0.523-1.944-0.785-4.137-0.785-6.577V57.325h8.748V80.73c0,1.742,0.111,3.153,0.336,4.223
		c0.225,1.072,0.611,1.98,1.16,2.729c0.797,1.098,1.781,1.797,2.953,2.094c1.17,0.3,2.555,0.448,4.15,0.448h7.25
		c1.148,0,1.996-0.272,2.545-0.822c0.398-0.398,0.621-0.796,0.672-1.197c0.051-0.398,0.074-0.796,0.074-1.194V57.325h8.748v32.526
		C383.472,90.55,383.372,91.458,383.173,92.579z"/>
	<path fill="#434648" d="M398.2,109.664h-8.748V63.456c0-1.293,0.25-2.329,0.75-3.104c0.496-0.771,0.996-1.356,1.494-1.758
		c0.748-0.547,1.568-0.898,2.467-1.045c0.896-0.149,1.723-0.225,2.469-0.225h13.832c0.646,0,1.432,0.039,2.357,0.112
		c0.922,0.075,1.918,0.259,2.99,0.561c1.07,0.297,2.156,0.737,3.25,1.311c1.098,0.571,2.119,1.355,3.066,2.353
		c0.998,1.047,1.785,2.193,2.357,3.438c0.572,1.248,0.994,2.519,1.27,3.815c0.273,1.296,0.438,2.578,0.486,3.85
		s0.074,2.457,0.074,3.554c0,1.296-0.025,2.616-0.074,3.963c-0.049,1.342-0.186,2.665-0.412,3.961
		c-0.225,1.299-0.547,2.543-0.971,3.738s-0.984,2.293-1.682,3.291c-0.949,1.347-2.006,2.405-3.18,3.177
		c-1.172,0.773-2.391,1.347-3.662,1.72c-1.271,0.374-2.52,0.598-3.738,0.674c-1.225,0.075-2.332,0.112-3.328,0.112H398.2V109.664z
		 M408.146,90.224c2.193,0,3.863-0.411,5.01-1.233c1.146-0.823,1.969-1.632,2.469-2.43c0.398-0.598,0.771-1.595,1.121-2.991
		c0.348-1.394,0.523-3.563,0.523-6.505c0-2.691-0.113-4.646-0.336-5.87c-0.223-1.22-0.463-2.104-0.711-2.654
		c-0.551-1.294-1.471-2.366-2.766-3.216c-1.297-0.847-2.918-1.269-4.863-1.269h-8.598c-0.197,0-0.41,0.063-0.633,0.187
		c-0.227,0.125-0.414,0.235-0.562,0.333c-0.398,0.403-0.6,0.85-0.6,1.348v24.301H408.146z"/>
</g>
</svg>
